<?xml version="1.0" encoding="utf-8"?>
<!-- Generator: Adobe Illustrator 18.0.0, SVG Export Plug-In . SVG Version: 6.00 Build 0)  -->
<!DOCTYPE svg PUBLIC "-//W3C//DTD SVG 1.1//EN" "http://www.w3.org/Graphics/SVG/1.1/DTD/svg11.dtd">
<svg version="1.1" id="Layer_1" xmlns="http://www.w3.org/2000/svg" xmlns:xlink="http://www.w3.org/1999/xlink" x="0px" y="0px"
	 viewBox="0 0 300 300" enable-background="new 0 0 300 300" xml:space="preserve">
<g>
	<path fill="none" stroke="#FFFFFF" stroke-width="22" stroke-linecap="round" stroke-miterlimit="10" d="M68.5,271.8
		C6.7,218.1,0,124.4,53.7,62.5C101.6,7.4,185,1.5,240.1,49.3c49.1,42.6,54.3,116.9,11.7,166C213.9,259,147.7,263.7,104,225.8
		C65.1,192,61,133,94.7,94.1c30.1-34.7,82.6-38.4,117.2-8.3c30.9,26.8,34.2,73.5,7.4,104.4c-23.9,27.5-65.5,30.4-93,6.6
		c-24.5-21.2-27.1-58.3-5.8-82.8c18.9-21.8,51.9-24.1,73.7-5.2c19.4,16.9,21.5,46.2,4.6,65.7c-15,17.3-41.2,19.1-58.5,4.1
		c-15.4-13.4-17-36.7-3.7-52.1c11.9-13.7,32.7-15.2,46.4-3.3c12.2,10.6,13.5,29.1,2.9,41.3c-9.4,10.9-25.9,12-36.8,2.6
		c-9.7-8.4-10.7-23.1-2.3-32.8c7.5-8.6,20.5-9.5,29.2-2.1c7.7,6.7,8.5,18.3,1.8,26c-5.9,6.8-16.3,7.6-23.1,1.6
		c-6.1-5.3-6.7-14.5-1.5-20.6c4.7-5.4,12.9-6,18.3-1.3c4.8,4.2,5.3,11.5,1.2,16.3c-3.7,4.3-10.2,4.8-14.5,1c-3.8-3.3-4.2-9.1-0.9-13
		c3-3.4,8.1-3.8,11.5-0.8c3,2.6,3.4,7.2,0.7,10.3c-2.3,2.7-6.4,3-9.2,0.6c-2.4-2.1-2.7-5.7-0.6-8.1c1.9-2.1,5.1-2.4,7.3-0.5
		c1.9,1.7,2.1,4.6,0.5,6.5c-1.5,1.7-4.1,1.9-5.8,0.4c-1.5-1.3-1.7-3.6-0.4-5.1c1.2-1.3,3.2-1.5,4.6-0.3c1.2,1,1.3,2.9,0.3,4.1
		c-0.9,1.1-2.5,1.2-3.6,0.3c-1-0.8-1.1-2.3-0.2-3.2c0.7-0.8,2-0.9,2.9-0.2c0.8,0.7,0.8,1.8,0.2,2.6c-0.6,0.7-1.6,0.7-2.3,0.2
		c-0.6-0.5-0.7-1.4-0.1-2c0.5-0.5,1.3-0.6,1.8-0.1c0.5,0.4,0.5,1.1,0.1,1.6c-0.4,0.4-1,0.5-1.4,0.1"/>
	<path fill="none" stroke="#231F20" stroke-width="4" stroke-linecap="round" stroke-linejoin="round" stroke-miterlimit="10" d="
		M68.5,271.8C6.7,218.1,0,124.4,53.7,62.5C101.6,7.4,185,1.5,240.1,49.3c49.1,42.6,54.3,116.9,11.7,166
		C213.9,259,147.7,263.7,104,225.8C65.1,192,61,133,94.7,94.1c30.1-34.7,82.6-38.4,117.2-8.3c30.9,26.8,34.2,73.5,7.4,104.4
		c-23.9,27.5-65.5,30.4-93,6.6c-24.5-21.2-27.1-58.3-5.8-82.8c18.9-21.8,51.9-24.1,73.7-5.2c19.4,16.9,21.5,46.2,4.6,65.7
		c-15,17.3-41.2,19.1-58.5,4.1c-15.4-13.4-17-36.7-3.7-52.1c11.9-13.7,32.7-15.2,46.4-3.3c12.2,10.6,13.5,29.1,2.9,41.3
		c-9.4,10.9-25.9,12-36.8,2.6c-9.7-8.4-10.7-23.1-2.3-32.8c7.5-8.6,20.5-9.5,29.2-2.1c7.7,6.7,8.5,18.3,1.8,26
		c-5.9,6.8-16.3,7.6-23.1,1.6c-6.1-5.3-6.7-14.5-1.5-20.6c4.7-5.4,12.9-6,18.3-1.3c4.8,4.2,5.3,11.5,1.2,16.3
		c-3.7,4.3-10.2,4.8-14.5,1c-3.8-3.3-4.2-9.1-0.9-13c3-3.4,8.1-3.8,11.5-0.8c3,2.6,3.4,7.2,0.7,10.3c-2.3,2.7-6.4,3-9.2,0.6
		c-2.4-2.1-2.7-5.7-0.6-8.1c1.9-2.1,5.1-2.4,7.3-0.5c1.9,1.7,2.1,4.6,0.5,6.5c-1.5,1.7-4.1,1.9-5.8,0.4c-1.5-1.3-1.7-3.6-0.4-5.1
		c1.2-1.3,3.2-1.5,4.6-0.3c1.2,1,1.3,2.9,0.3,4.1c-0.9,1.1-2.5,1.2-3.6,0.3c-1-0.8-1.1-2.3-0.2-3.2c0.7-0.8,2-0.9,2.9-0.2
		c0.8,0.7,0.8,1.8,0.2,2.6c-0.6,0.7-1.6,0.7-2.3,0.2c-0.6-0.5-0.7-1.4-0.1-2c0.5-0.5,1.3-0.6,1.8-0.1c0.5,0.4,0.5,1.1,0.1,1.6
		c-0.4,0.4-1,0.5-1.4,0.1"/>
	<path fill="none" stroke="#2E3192" stroke-width="0.8" stroke-miterlimit="10" d="M68.5,271.8C6.7,218.1,0,124.4,53.7,62.5
		C101.6,7.4,185,1.5,240.1,49.3c49.1,42.6,54.3,116.9,11.7,166C213.9,259,147.7,263.7,104,225.8C65.1,192,61,133,94.7,94.1
		c30.1-34.7,82.6-38.4,117.2-8.3c30.9,26.8,34.2,73.5,7.4,104.4c-23.9,27.5-65.5,30.4-93,6.6c-24.5-21.2-27.1-58.3-5.8-82.8
		c18.9-21.8,51.9-24.1,73.7-5.2c19.4,16.9,21.5,46.2,4.6,65.7c-15,17.3-41.2,19.1-58.5,4.1c-15.4-13.4-17-36.7-3.7-52.1
		c11.9-13.7,32.7-15.2,46.4-3.3c12.2,10.6,13.5,29.1,2.9,41.3c-9.4,10.9-25.9,12-36.8,2.6c-9.7-8.4-10.7-23.1-2.3-32.8
		c7.5-8.6,20.5-9.5,29.2-2.1c7.7,6.7,8.5,18.3,1.8,26c-5.9,6.8-16.3,7.6-23.1,1.6c-6.1-5.3-6.7-14.5-1.5-20.6
		c4.7-5.4,12.9-6,18.3-1.3c4.8,4.2,5.3,11.5,1.2,16.3c-3.7,4.3-10.2,4.8-14.5,1c-3.8-3.3-4.2-9.1-0.9-13c3-3.4,8.1-3.8,11.5-0.8
		c3,2.6,3.4,7.2,0.7,10.3c-2.3,2.7-6.4,3-9.2,0.6c-2.4-2.1-2.7-5.7-0.6-8.1c1.9-2.1,5.1-2.4,7.3-0.5c1.9,1.7,2.1,4.6,0.5,6.5
		c-1.5,1.7-4.1,1.9-5.8,0.4c-1.5-1.3-1.7-3.6-0.4-5.1c1.2-1.3,3.2-1.5,4.6-0.3c1.2,1,1.3,2.9,0.3,4.1c-0.9,1.1-2.5,1.2-3.6,0.3
		c-1-0.8-1.1-2.3-0.2-3.2c0.7-0.8,2-0.9,2.9-0.2c0.8,0.7,0.8,1.8,0.2,2.6c-0.6,0.7-1.6,0.7-2.3,0.2c-0.6-0.5-0.7-1.4-0.1-2
		c0.5-0.5,1.3-0.6,1.8-0.1c0.5,0.4,0.5,1.1,0.1,1.6c-0.4,0.4-1,0.5-1.4,0.1"/>
</g>
</svg>
